<mxfile host="app.diagrams.net" modified="2024-05-14T11:14:04.959Z" agent="Mozilla/5.0 (Windows NT 10.0; Win64; x64) AppleWebKit/537.36 (KHTML, like Gecko) Chrome/124.0.0.0 Safari/537.36 Edg/124.0.0.0" etag="jiIPSrEDpBpFI5WL9w20" version="24.4.0" type="device">
  <diagram name="第 1 页" id="okU0n54IgxZbcpG-btri">
    <mxGraphModel dx="1461" dy="669" grid="1" gridSize="10" guides="1" tooltips="1" connect="1" arrows="1" fold="1" page="1" pageScale="1" pageWidth="3300" pageHeight="4681" math="0" shadow="0">
      <root>
        <mxCell id="0" />
        <mxCell id="1" parent="0" />
        <mxCell id="i6mA0avMITJ-HFU1GMFp-64" value="" style="rounded=0;whiteSpace=wrap;html=1;" vertex="1" parent="1">
          <mxGeometry x="760" y="340" width="295" height="88.42" as="geometry" />
        </mxCell>
        <mxCell id="_xA3LoiiGtDSYOz61GpJ-1" value="学生" style="shape=umlActor;verticalLabelPosition=bottom;verticalAlign=top;html=1;outlineConnect=0;" parent="1" vertex="1">
          <mxGeometry x="20" y="40" width="30" height="60" as="geometry" />
        </mxCell>
        <mxCell id="_xA3LoiiGtDSYOz61GpJ-9" value="" style="endArrow=none;dashed=1;html=1;dashPattern=1 3;strokeWidth=2;rounded=0;" parent="1" edge="1">
          <mxGeometry width="50" height="50" relative="1" as="geometry">
            <mxPoint x="34.91" y="170" as="sourcePoint" />
            <mxPoint x="34.41" y="100" as="targetPoint" />
          </mxGeometry>
        </mxCell>
        <mxCell id="_xA3LoiiGtDSYOz61GpJ-10" value="" style="rounded=0;whiteSpace=wrap;html=1;rotation=-90;" parent="1" vertex="1">
          <mxGeometry x="-191.25" y="388.75" width="452.5" height="15" as="geometry" />
        </mxCell>
        <mxCell id="i6mA0avMITJ-HFU1GMFp-5" value="&amp;lt;&amp;lt;interface&amp;gt;&amp;gt;&lt;div&gt;:orderIndex&lt;/div&gt;" style="rounded=0;whiteSpace=wrap;html=1;" vertex="1" parent="1">
          <mxGeometry x="141.25" y="60" width="120" height="40" as="geometry" />
        </mxCell>
        <mxCell id="i6mA0avMITJ-HFU1GMFp-6" value="" style="endArrow=none;dashed=1;html=1;dashPattern=1 3;strokeWidth=2;rounded=0;" edge="1" parent="1">
          <mxGeometry width="50" height="50" relative="1" as="geometry">
            <mxPoint x="200.66" y="140" as="sourcePoint" />
            <mxPoint x="200.66" y="100" as="targetPoint" />
          </mxGeometry>
        </mxCell>
        <mxCell id="i6mA0avMITJ-HFU1GMFp-7" value="" style="rounded=0;whiteSpace=wrap;html=1;rotation=-90;" vertex="1" parent="1">
          <mxGeometry x="71.25" y="263.75" width="260" height="15" as="geometry" />
        </mxCell>
        <mxCell id="i6mA0avMITJ-HFU1GMFp-8" value="" style="endArrow=classic;html=1;rounded=0;entryX=0.812;entryY=0.115;entryDx=0;entryDy=0;entryPerimeter=0;" edge="1" parent="1" target="i6mA0avMITJ-HFU1GMFp-7">
          <mxGeometry width="50" height="50" relative="1" as="geometry">
            <mxPoint x="40" y="190" as="sourcePoint" />
            <mxPoint x="90" y="140" as="targetPoint" />
          </mxGeometry>
        </mxCell>
        <mxCell id="i6mA0avMITJ-HFU1GMFp-9" value="Select a Order" style="text;html=1;align=center;verticalAlign=middle;whiteSpace=wrap;rounded=0;" vertex="1" parent="1">
          <mxGeometry x="81.25" y="170" width="88.75" height="20" as="geometry" />
        </mxCell>
        <mxCell id="i6mA0avMITJ-HFU1GMFp-10" value="&amp;lt;&amp;lt;interface&amp;gt;&amp;gt;&lt;div&gt;:orderShow&lt;span style=&quot;color: rgba(0, 0, 0, 0); font-family: monospace; font-size: 0px; text-align: start; text-wrap: nowrap; background-color: initial;&quot;&gt;%3CmxGraphModel%3E%3Croot%3E%3CmxCell%20id%3D%220%22%2F%3E%3CmxCell%20id%3D%221%22%20parent%3D%220%22%2F%3E%3CmxCell%20id%3D%222%22%20value%3D%22%26amp%3Blt%3B%26amp%3Blt%3Binterface%26amp%3Bgt%3B%26amp%3Bgt%3B%26lt%3Bdiv%26gt%3B%3AorderIndex%26lt%3B%2Fdiv%26gt%3B%22%20style%3D%22rounded%3D0%3BwhiteSpace%3Dwrap%3Bhtml%3D1%3B%22%20vertex%3D%221%22%20parent%3D%221%22%3E%3CmxGeometry%20x%3D%22141.25%22%20y%3D%2260%22%20width%3D%22120%22%20height%3D%2240%22%20as%3D%22geometry%22%2F%3E%3C%2FmxCell%3E%3C%2Froot%3E%3C%2FmxGraphModel%3E&lt;/span&gt;&lt;/div&gt;" style="rounded=0;whiteSpace=wrap;html=1;" vertex="1" parent="1">
          <mxGeometry x="340" y="60" width="120" height="40" as="geometry" />
        </mxCell>
        <mxCell id="i6mA0avMITJ-HFU1GMFp-11" value="&amp;lt;&amp;lt;controller&amp;gt;&amp;gt;&lt;div&gt;:orderCotroller&lt;span style=&quot;color: rgba(0, 0, 0, 0); font-family: monospace; font-size: 0px; text-align: start; text-wrap: nowrap; background-color: initial;&quot;&gt;%3CmxGraphModel%3E%3Croot%3E%3CmxCell%20id%3D%220%22%2F%3E%3CmxCell%20id%3D%221%22%20parent%3D%220%22%2F%3E%3CmxCell%20id%3D%222%22%20value%3D%22%26amp%3Blt%3B%26amp%3Blt%3Binterface%26amp%3Bgt%3B%26amp%3Bgt%3B%26lt%3Bdiv%26gt%3B%3AorderIndex%26lt%3B%2Fdiv%26gt%3B%22%20style%3D%22rounded%3D0%3BwhiteSpace%3Dwrap%3Bhtml%3D1%3B%22%20vertex%3D%221%22%20parent%3D%221%22%3E%3CmxGeometry%20x%3D%22141.25%22%20y%3D%2260%22%20width%3D%22120%22%20height%3D%2240%22%20as%3D%22geometry%22%2F%3E%3C%2FmxCell%3E%3C%2Froot%3E%3C%2FmxGraphModel%3E&lt;/span&gt;&lt;/div&gt;" style="rounded=0;whiteSpace=wrap;html=1;" vertex="1" parent="1">
          <mxGeometry x="560" y="60" width="120" height="40" as="geometry" />
        </mxCell>
        <mxCell id="i6mA0avMITJ-HFU1GMFp-12" value="" style="endArrow=none;dashed=1;html=1;dashPattern=1 3;strokeWidth=2;rounded=0;" edge="1" parent="1">
          <mxGeometry width="50" height="50" relative="1" as="geometry">
            <mxPoint x="619" y="140" as="sourcePoint" />
            <mxPoint x="619.41" y="100" as="targetPoint" />
          </mxGeometry>
        </mxCell>
        <mxCell id="i6mA0avMITJ-HFU1GMFp-13" value="" style="rounded=0;whiteSpace=wrap;html=1;rotation=-90;" vertex="1" parent="1">
          <mxGeometry x="406.88" y="350" width="422.5" height="15" as="geometry" />
        </mxCell>
        <mxCell id="i6mA0avMITJ-HFU1GMFp-14" value="" style="endArrow=classic;html=1;rounded=0;" edge="1" parent="1">
          <mxGeometry width="50" height="50" relative="1" as="geometry">
            <mxPoint x="210" y="210" as="sourcePoint" />
            <mxPoint x="610" y="210" as="targetPoint" />
          </mxGeometry>
        </mxCell>
        <mxCell id="i6mA0avMITJ-HFU1GMFp-15" value="showOrder(studentId,orderId)" style="text;html=1;align=center;verticalAlign=middle;whiteSpace=wrap;rounded=0;" vertex="1" parent="1">
          <mxGeometry x="210" y="190" width="230" height="20" as="geometry" />
        </mxCell>
        <mxCell id="i6mA0avMITJ-HFU1GMFp-16" value="" style="endArrow=none;dashed=1;html=1;dashPattern=1 3;strokeWidth=2;rounded=0;entryX=0.5;entryY=1;entryDx=0;entryDy=0;" edge="1" parent="1" target="i6mA0avMITJ-HFU1GMFp-10">
          <mxGeometry width="50" height="50" relative="1" as="geometry">
            <mxPoint x="400" y="450" as="sourcePoint" />
            <mxPoint x="390" y="120" as="targetPoint" />
          </mxGeometry>
        </mxCell>
        <mxCell id="i6mA0avMITJ-HFU1GMFp-17" value="" style="rounded=0;whiteSpace=wrap;html=1;rotation=-90;" vertex="1" parent="1">
          <mxGeometry x="357.98" y="490.18" width="84.07" height="15" as="geometry" />
        </mxCell>
        <mxCell id="i6mA0avMITJ-HFU1GMFp-18" value="" style="endArrow=none;dashed=1;html=1;dashPattern=1 3;strokeWidth=2;rounded=0;entryX=0;entryY=0.5;entryDx=0;entryDy=0;" edge="1" parent="1" target="i6mA0avMITJ-HFU1GMFp-17">
          <mxGeometry width="50" height="50" relative="1" as="geometry">
            <mxPoint x="400" y="650" as="sourcePoint" />
            <mxPoint x="400" y="490" as="targetPoint" />
            <Array as="points" />
          </mxGeometry>
        </mxCell>
        <mxCell id="i6mA0avMITJ-HFU1GMFp-21" value="" style="rounded=0;whiteSpace=wrap;html=1;rotation=-90;" vertex="1" parent="1">
          <mxGeometry x="175.63" y="545.62" width="51.25" height="15" as="geometry" />
        </mxCell>
        <mxCell id="i6mA0avMITJ-HFU1GMFp-22" value="" style="endArrow=none;dashed=1;html=1;dashPattern=1 3;strokeWidth=2;rounded=0;entryX=0;entryY=0.5;entryDx=0;entryDy=0;exitX=1;exitY=0.5;exitDx=0;exitDy=0;" edge="1" parent="1" source="i6mA0avMITJ-HFU1GMFp-21" target="i6mA0avMITJ-HFU1GMFp-7">
          <mxGeometry width="50" height="50" relative="1" as="geometry">
            <mxPoint x="210.66" y="150" as="sourcePoint" />
            <mxPoint x="210.66" y="110" as="targetPoint" />
          </mxGeometry>
        </mxCell>
        <mxCell id="i6mA0avMITJ-HFU1GMFp-23" value="&lt;span style=&quot;color: rgb(5, 7, 59); font-family: -apple-system, BlinkMacSystemFont, &amp;quot;Segoe UI&amp;quot;, Roboto, Ubuntu, &amp;quot;Helvetica Neue&amp;quot;, Helvetica, Arial, &amp;quot;PingFang SC&amp;quot;, &amp;quot;Hiragino Sans GB&amp;quot;, &amp;quot;Microsoft YaHei UI&amp;quot;, &amp;quot;Microsoft YaHei&amp;quot;, &amp;quot;Source Han Sans CN&amp;quot;, sans-serif, &amp;quot;Apple Color Emoji&amp;quot;, &amp;quot;Segoe UI Emoji&amp;quot;; font-size: 15px; text-align: start; background-color: rgb(253, 253, 254);&quot;&gt;apply after-sales&lt;/span&gt;" style="text;html=1;align=center;verticalAlign=middle;whiteSpace=wrap;rounded=0;" vertex="1" parent="1">
          <mxGeometry x="90" y="460" width="188.75" height="22.2" as="geometry" />
        </mxCell>
        <mxCell id="i6mA0avMITJ-HFU1GMFp-25" value="" style="endArrow=classic;html=1;rounded=0;" edge="1" parent="1">
          <mxGeometry width="50" height="50" relative="1" as="geometry">
            <mxPoint x="40" y="480" as="sourcePoint" />
            <mxPoint x="390" y="480" as="targetPoint" />
          </mxGeometry>
        </mxCell>
        <mxCell id="i6mA0avMITJ-HFU1GMFp-26" value="" style="endArrow=none;dashed=1;html=1;dashPattern=1 3;strokeWidth=2;rounded=0;" edge="1" parent="1">
          <mxGeometry width="50" height="50" relative="1" as="geometry">
            <mxPoint x="200" y="580" as="sourcePoint" />
            <mxPoint x="200" y="660" as="targetPoint" />
          </mxGeometry>
        </mxCell>
        <mxCell id="i6mA0avMITJ-HFU1GMFp-27" value="" style="endArrow=none;dashed=1;html=1;dashPattern=1 3;strokeWidth=2;rounded=0;" edge="1" parent="1">
          <mxGeometry width="50" height="50" relative="1" as="geometry">
            <mxPoint x="34.41" y="660" as="sourcePoint" />
            <mxPoint x="34.41" y="620" as="targetPoint" />
          </mxGeometry>
        </mxCell>
        <mxCell id="i6mA0avMITJ-HFU1GMFp-28" value="" style="endArrow=none;dashed=1;html=1;dashPattern=1 3;strokeWidth=2;rounded=0;" edge="1" parent="1">
          <mxGeometry width="50" height="50" relative="1" as="geometry">
            <mxPoint x="620" y="650" as="sourcePoint" />
            <mxPoint x="620" y="570" as="targetPoint" />
          </mxGeometry>
        </mxCell>
        <mxCell id="i6mA0avMITJ-HFU1GMFp-32" value="" style="endArrow=none;dashed=1;html=1;dashPattern=1 3;strokeWidth=2;rounded=0;" edge="1" parent="1">
          <mxGeometry width="50" height="50" relative="1" as="geometry">
            <mxPoint x="610" y="560" as="sourcePoint" />
            <mxPoint x="220" y="560" as="targetPoint" />
          </mxGeometry>
        </mxCell>
        <mxCell id="i6mA0avMITJ-HFU1GMFp-33" value="" style="endArrow=classic;html=1;rounded=0;" edge="1" parent="1">
          <mxGeometry width="50" height="50" relative="1" as="geometry">
            <mxPoint x="226.88" y="560.62" as="sourcePoint" />
            <mxPoint x="208.13" y="561" as="targetPoint" />
          </mxGeometry>
        </mxCell>
        <mxCell id="i6mA0avMITJ-HFU1GMFp-34" value="Order status&lt;span style=&quot;color: rgba(0, 0, 0, 0); font-family: monospace; font-size: 0px; text-align: start; text-wrap: nowrap;&quot;&gt;%3CmxGraphModel%3E%3Croot%3E%3CmxCell%20id%3D%220%22%2F%3E%3CmxCell%20id%3D%221%22%20parent%3D%220%22%2F%3E%3CmxCell%20id%3D%222%22%20value%3D%22Select%20a%20Order%22%20style%3D%22text%3Bhtml%3D1%3Balign%3Dcenter%3BverticalAlign%3Dmiddle%3BwhiteSpace%3Dwrap%3Brounded%3D0%3B%22%20vertex%3D%221%22%20parent%3D%221%22%3E%3CmxGeometry%20x%3D%2281.25%22%20y%3D%22170%22%20width%3D%2288.75%22%20height%3D%2220%22%20as%3D%22geometry%22%2F%3E%3C%2FmxCell%3E%3C%2Froot%3E%3C%2FmxGraphModel%3E&lt;/span&gt;&amp;nbsp;and able to apply" style="text;html=1;align=center;verticalAlign=middle;whiteSpace=wrap;rounded=0;" vertex="1" parent="1">
          <mxGeometry x="226.88" y="560.62" width="180" height="20" as="geometry" />
        </mxCell>
        <mxCell id="i6mA0avMITJ-HFU1GMFp-35" value="Order status&lt;span style=&quot;color: rgba(0, 0, 0, 0); font-family: monospace; font-size: 0px; text-align: start; text-wrap: nowrap;&quot;&gt;%3CmxGraphModel%3E%3Croot%3E%3CmxCell%20id%3D%220%22%2F%3E%3CmxCell%20id%3D%221%22%20parent%3D%220%22%2F%3E%3CmxCell%20id%3D%222%22%20value%3D%22Select%20a%20Order%22%20style%3D%22text%3Bhtml%3D1%3Balign%3Dcenter%3BverticalAlign%3Dmiddle%3BwhiteSpace%3Dwrap%3Brounded%3D0%3B%22%20vertex%3D%221%22%20parent%3D%221%22%3E%3CmxGeometry%20x%3D%2281.25%22%20y%3D%22170%22%20width%3D%2288.75%22%20height%3D%2220%22%20as%3D%22geometry%22%2F%3E%3C%2FmxCell%3E%3C%2Froot%3E%3C%2FmxGraphModel%3E&lt;/span&gt;&amp;nbsp;and able to apply" style="text;html=1;align=center;verticalAlign=middle;whiteSpace=wrap;rounded=0;" vertex="1" parent="1">
          <mxGeometry x="420" y="440" width="180" height="20" as="geometry" />
        </mxCell>
        <mxCell id="i6mA0avMITJ-HFU1GMFp-36" value="" style="endArrow=none;dashed=1;html=1;dashPattern=1 3;strokeWidth=2;rounded=0;entryX=0;entryY=1;entryDx=0;entryDy=0;" edge="1" parent="1" target="i6mA0avMITJ-HFU1GMFp-35">
          <mxGeometry width="50" height="50" relative="1" as="geometry">
            <mxPoint x="610" y="460" as="sourcePoint" />
            <mxPoint x="660" y="410" as="targetPoint" />
          </mxGeometry>
        </mxCell>
        <mxCell id="i6mA0avMITJ-HFU1GMFp-37" value="" style="endArrow=classic;html=1;rounded=0;" edge="1" parent="1">
          <mxGeometry width="50" height="50" relative="1" as="geometry">
            <mxPoint x="430" y="460" as="sourcePoint" />
            <mxPoint x="410" y="460" as="targetPoint" />
          </mxGeometry>
        </mxCell>
        <mxCell id="i6mA0avMITJ-HFU1GMFp-38" value="" style="endArrow=classic;html=1;rounded=0;" edge="1" parent="1">
          <mxGeometry width="50" height="50" relative="1" as="geometry">
            <mxPoint x="410" y="481.02" as="sourcePoint" />
            <mxPoint x="610" y="481.02" as="targetPoint" />
          </mxGeometry>
        </mxCell>
        <mxCell id="i6mA0avMITJ-HFU1GMFp-39" value="Apply(srudentId,orderId,orderness)" style="text;html=1;align=center;verticalAlign=middle;whiteSpace=wrap;rounded=0;" vertex="1" parent="1">
          <mxGeometry x="424" y="484.4" width="176" height="12.8" as="geometry" />
        </mxCell>
        <mxCell id="i6mA0avMITJ-HFU1GMFp-40" value="&lt;span style=&quot;color: rgb(5, 7, 59); font-family: -apple-system, BlinkMacSystemFont, &amp;quot;Segoe UI&amp;quot;, Roboto, Ubuntu, &amp;quot;Helvetica Neue&amp;quot;, Helvetica, Arial, &amp;quot;PingFang SC&amp;quot;, &amp;quot;Hiragino Sans GB&amp;quot;, &amp;quot;Microsoft YaHei UI&amp;quot;, &amp;quot;Microsoft YaHei&amp;quot;, &amp;quot;Source Han Sans CN&amp;quot;, sans-serif, &amp;quot;Apple Color Emoji&amp;quot;, &amp;quot;Segoe UI Emoji&amp;quot;; font-size: 15px; text-align: start; background-color: rgb(253, 253, 254);&quot;&gt;Order Status Check(orderId)&lt;/span&gt;" style="text;html=1;align=center;verticalAlign=middle;whiteSpace=wrap;rounded=0;" vertex="1" parent="1">
          <mxGeometry x="650" y="180" width="150" height="40" as="geometry" />
        </mxCell>
        <mxCell id="i6mA0avMITJ-HFU1GMFp-43" value="" style="endArrow=classic;html=1;rounded=0;" edge="1" parent="1">
          <mxGeometry width="50" height="50" relative="1" as="geometry">
            <mxPoint x="630" y="230" as="sourcePoint" />
            <mxPoint x="820" y="230" as="targetPoint" />
          </mxGeometry>
        </mxCell>
        <mxCell id="i6mA0avMITJ-HFU1GMFp-44" value="" style="rounded=0;whiteSpace=wrap;html=1;rotation=-90;" vertex="1" parent="1">
          <mxGeometry x="680" y="300" width="302.5" height="15" as="geometry" />
        </mxCell>
        <mxCell id="i6mA0avMITJ-HFU1GMFp-45" value="" style="endArrow=none;dashed=1;html=1;dashPattern=1 3;strokeWidth=2;rounded=0;" edge="1" parent="1">
          <mxGeometry width="50" height="50" relative="1" as="geometry">
            <mxPoint x="830" y="150" as="sourcePoint" />
            <mxPoint x="830" y="100" as="targetPoint" />
          </mxGeometry>
        </mxCell>
        <mxCell id="i6mA0avMITJ-HFU1GMFp-46" value="&lt;div&gt;:Order&lt;span style=&quot;color: rgba(0, 0, 0, 0); font-family: monospace; font-size: 0px; text-align: start; text-wrap: nowrap; background-color: initial;&quot;&gt;%3CmxGraphModel%3E%3Croot%3E%3CmxCell%20id%3D%220%22%2F%3E%3CmxCell%20id%3D%221%22%20parent%3D%220%22%2F%3E%3CmxCell%20id%3D%222%22%20value%3D%22%26amp%3Blt%3B%26amp%3Blt%3Binterface%26amp%3Bgt%3B%26amp%3Bgt%3B%26lt%3Bdiv%26gt%3B%3AorderIndex%26lt%3B%2Fdiv%26gt%3B%22%20style%3D%22rounded%3D0%3BwhiteSpace%3Dwrap%3Bhtml%3D1%3B%22%20vertex%3D%221%22%20parent%3D%221%22%3E%3CmxGeometry%20x%3D%22141.25%22%20y%3D%2260%22%20width%3D%22120%22%20height%3D%2240%22%20as%3D%22geometry%22%2F%3E%3C%2FmxCell%3E%3C%2Froot%3E%3C%2FmxGraphModel%3E&lt;/span&gt;&lt;/div&gt;" style="rounded=0;whiteSpace=wrap;html=1;" vertex="1" parent="1">
          <mxGeometry x="771.25" y="70" width="120" height="30" as="geometry" />
        </mxCell>
        <mxCell id="i6mA0avMITJ-HFU1GMFp-47" value="&lt;span style=&quot;color: rgb(5, 7, 59); font-family: -apple-system, BlinkMacSystemFont, &amp;quot;Segoe UI&amp;quot;, Roboto, Ubuntu, &amp;quot;Helvetica Neue&amp;quot;, Helvetica, Arial, &amp;quot;PingFang SC&amp;quot;, &amp;quot;Hiragino Sans GB&amp;quot;, &amp;quot;Microsoft YaHei UI&amp;quot;, &amp;quot;Microsoft YaHei&amp;quot;, &amp;quot;Source Han Sans CN&amp;quot;, sans-serif, &amp;quot;Apple Color Emoji&amp;quot;, &amp;quot;Segoe UI Emoji&amp;quot;; font-size: 15px; text-align: start; background-color: rgb(253, 253, 254);&quot;&gt;Status Matches&lt;/span&gt;" style="text;html=1;align=center;verticalAlign=middle;whiteSpace=wrap;rounded=0;" vertex="1" parent="1">
          <mxGeometry x="650" y="280" width="130" height="20" as="geometry" />
        </mxCell>
        <mxCell id="i6mA0avMITJ-HFU1GMFp-48" value="" style="endArrow=classic;html=1;rounded=0;entryX=0.638;entryY=0.997;entryDx=0;entryDy=0;entryPerimeter=0;exitX=0;exitY=1;exitDx=0;exitDy=0;" edge="1" parent="1" source="i6mA0avMITJ-HFU1GMFp-47" target="i6mA0avMITJ-HFU1GMFp-13">
          <mxGeometry width="50" height="50" relative="1" as="geometry">
            <mxPoint x="820" y="300" as="sourcePoint" />
            <mxPoint x="870" y="250" as="targetPoint" />
          </mxGeometry>
        </mxCell>
        <mxCell id="i6mA0avMITJ-HFU1GMFp-50" value="" style="endArrow=none;dashed=1;html=1;dashPattern=1 3;strokeWidth=2;rounded=0;entryX=0.527;entryY=0.091;entryDx=0;entryDy=0;entryPerimeter=0;" edge="1" parent="1" target="i6mA0avMITJ-HFU1GMFp-44">
          <mxGeometry width="50" height="50" relative="1" as="geometry">
            <mxPoint x="650" y="300" as="sourcePoint" />
            <mxPoint x="700" y="250" as="targetPoint" />
          </mxGeometry>
        </mxCell>
        <mxCell id="i6mA0avMITJ-HFU1GMFp-51" value="&lt;div&gt;:orderStatusUpdate&lt;span style=&quot;color: rgba(0, 0, 0, 0); font-family: monospace; font-size: 0px; text-align: start; text-wrap: nowrap; background-color: initial;&quot;&gt;%3CmxGraphModel%3E%3Croot%3E%3CmxCell%20id%3D%220%22%2F%3E%3CmxCell%20id%3D%221%22%20parent%3D%220%22%2F%3E%3CmxCell%20id%3D%222%22%20value%3D%22%26amp%3Blt%3B%26amp%3Blt%3Binterface%26amp%3Bgt%3B%26amp%3Bgt%3B%26lt%3Bdiv%26gt%3B%3AorderIndex%26lt%3B%2Fdiv%26gt%3B%22%20style%3D%22rounded%3D0%3BwhiteSpace%3Dwrap%3Bhtml%3D1%3B%22%20vertex%3D%221%22%20parent%3D%221%22%3E%3CmxGeometry%20x%3D%22141.25%22%20y%3D%2260%22%20width%3D%22120%22%20height%3D%2240%22%20as%3D%22geometry%22%2F%3E%3C%2FmxCell%3E%3C%2Froot%3E%3C%2FmxGraphModel%3E&lt;/span&gt;&lt;/div&gt;" style="rounded=0;whiteSpace=wrap;html=1;" vertex="1" parent="1">
          <mxGeometry x="970" y="70" width="110" height="30" as="geometry" />
        </mxCell>
        <mxCell id="i6mA0avMITJ-HFU1GMFp-52" value="" style="endArrow=none;dashed=1;html=1;dashPattern=1 3;strokeWidth=2;rounded=0;entryX=0.5;entryY=1;entryDx=0;entryDy=0;" edge="1" parent="1" target="i6mA0avMITJ-HFU1GMFp-51">
          <mxGeometry width="50" height="50" relative="1" as="geometry">
            <mxPoint x="1025" y="340" as="sourcePoint" />
            <mxPoint x="840" y="110" as="targetPoint" />
          </mxGeometry>
        </mxCell>
        <mxCell id="i6mA0avMITJ-HFU1GMFp-53" value="" style="rounded=0;whiteSpace=wrap;html=1;rotation=-90;" vertex="1" parent="1">
          <mxGeometry x="986.88" y="374.08" width="76.25" height="15" as="geometry" />
        </mxCell>
        <mxCell id="i6mA0avMITJ-HFU1GMFp-54" value="" style="endArrow=none;dashed=1;html=1;dashPattern=1 3;strokeWidth=2;rounded=0;entryX=0.5;entryY=1;entryDx=0;entryDy=0;" edge="1" parent="1">
          <mxGeometry width="50" height="50" relative="1" as="geometry">
            <mxPoint x="1024" y="650" as="sourcePoint" />
            <mxPoint x="1024.41" y="420" as="targetPoint" />
          </mxGeometry>
        </mxCell>
        <mxCell id="i6mA0avMITJ-HFU1GMFp-55" value="&lt;div&gt;:&lt;span style=&quot;background-color: rgb(253, 253, 254); color: rgb(5, 7, 59); font-family: -apple-system, BlinkMacSystemFont, &amp;quot;Segoe UI&amp;quot;, Roboto, Ubuntu, &amp;quot;Helvetica Neue&amp;quot;, Helvetica, Arial, &amp;quot;PingFang SC&amp;quot;, &amp;quot;Hiragino Sans GB&amp;quot;, &amp;quot;Microsoft YaHei UI&amp;quot;, &amp;quot;Microsoft YaHei&amp;quot;, &amp;quot;Source Han Sans CN&amp;quot;, sans-serif, &amp;quot;Apple Color Emoji&amp;quot;, &amp;quot;Segoe UI Emoji&amp;quot;; font-size: 15px; text-align: start;&quot;&gt;after-salesApplication&lt;/span&gt;&lt;span style=&quot;background-color: initial; color: rgba(0, 0, 0, 0); font-family: monospace; font-size: 0px; text-align: start; text-wrap: nowrap;&quot;&gt;%3CmxGraphModel%3E%3Croot%3E%3CmxCell%20id%3D%220%22%2F%3E%3CmxCell%20id%3D%221%22%20parent%3D%220%22%2F%3E%3CmxCell%20id%3D%222%22%20value%3D%22%26amp%3Blt%3B%26amp%3Blt%3Binterface%26amp%3Bgt%3B%26amp%3Bgt%3B%26lt%3Bdiv%26gt%3B%3AorderIndex%26lt%3B%2Fdiv%26gt%3B%22%20style%3D%22rounded%3D0%3BwhiteSpace%3Dwrap%3Bhtml%3D1%3B%22%20vertex%3D%221%22%20parent%3D%221%22%3E%3CmxGeometry%20x%3D%22141.25%22%20y%3D%2260%22%20width%3D%22120%22%20height%3D%2240%22%20as%3D%22geometry%22%2F%3E%3C%2FmxCell%3E%3C%2Froot%3E%3C%2FmxGraphModel%3E&lt;/span&gt;&lt;/div&gt;" style="rounded=0;whiteSpace=wrap;html=1;" vertex="1" parent="1">
          <mxGeometry x="1159" y="70" width="150" height="30" as="geometry" />
        </mxCell>
        <mxCell id="i6mA0avMITJ-HFU1GMFp-57" value="" style="rounded=0;whiteSpace=wrap;html=1;rotation=-90;" vertex="1" parent="1">
          <mxGeometry x="1200" y="510" width="76.25" height="15" as="geometry" />
        </mxCell>
        <mxCell id="i6mA0avMITJ-HFU1GMFp-58" value="" style="endArrow=none;dashed=1;html=1;dashPattern=1 3;strokeWidth=2;rounded=0;entryX=0.5;entryY=1;entryDx=0;entryDy=0;" edge="1" parent="1">
          <mxGeometry width="50" height="50" relative="1" as="geometry">
            <mxPoint x="831" y="650" as="sourcePoint" />
            <mxPoint x="831.07" y="460" as="targetPoint" />
          </mxGeometry>
        </mxCell>
        <mxCell id="i6mA0avMITJ-HFU1GMFp-59" value="" style="endArrow=none;dashed=1;html=1;dashPattern=1 3;strokeWidth=2;rounded=0;entryX=0.5;entryY=1;entryDx=0;entryDy=0;exitX=1;exitY=0.5;exitDx=0;exitDy=0;" edge="1" parent="1" source="i6mA0avMITJ-HFU1GMFp-57">
          <mxGeometry width="50" height="50" relative="1" as="geometry">
            <mxPoint x="1237.54" y="330" as="sourcePoint" />
            <mxPoint x="1237.95" y="100" as="targetPoint" />
          </mxGeometry>
        </mxCell>
        <mxCell id="i6mA0avMITJ-HFU1GMFp-60" value="" style="endArrow=none;dashed=1;html=1;dashPattern=1 3;strokeWidth=2;rounded=0;entryX=0.5;entryY=1;entryDx=0;entryDy=0;" edge="1" parent="1">
          <mxGeometry width="50" height="50" relative="1" as="geometry">
            <mxPoint x="1240" y="650" as="sourcePoint" />
            <mxPoint x="1237.95" y="560.62" as="targetPoint" />
          </mxGeometry>
        </mxCell>
        <mxCell id="i6mA0avMITJ-HFU1GMFp-61" value="" style="endArrow=classic;html=1;rounded=0;" edge="1" parent="1">
          <mxGeometry width="50" height="50" relative="1" as="geometry">
            <mxPoint x="630" y="550" as="sourcePoint" />
            <mxPoint x="1230" y="550" as="targetPoint" />
          </mxGeometry>
        </mxCell>
        <mxCell id="i6mA0avMITJ-HFU1GMFp-62" value="&lt;font style=&quot;font-size: 14px;&quot;&gt;create(studentId,orderId,orderness)&lt;/font&gt;" style="text;html=1;align=center;verticalAlign=middle;whiteSpace=wrap;rounded=0;" vertex="1" parent="1">
          <mxGeometry x="810" y="530.62" width="220" height="15" as="geometry" />
        </mxCell>
        <mxCell id="i6mA0avMITJ-HFU1GMFp-68" value="" style="endArrow=none;html=1;rounded=0;edgeStyle=orthogonalEdgeStyle;" edge="1" parent="1">
          <mxGeometry width="50" height="50" relative="1" as="geometry">
            <mxPoint x="760" y="390" as="sourcePoint" />
            <mxPoint x="810" y="340" as="targetPoint" />
            <Array as="points">
              <mxPoint x="811" y="391" />
              <mxPoint x="811" y="340" />
            </Array>
          </mxGeometry>
        </mxCell>
        <mxCell id="i6mA0avMITJ-HFU1GMFp-69" value="Loop" style="text;html=1;align=center;verticalAlign=middle;whiteSpace=wrap;rounded=0;" vertex="1" parent="1">
          <mxGeometry x="760" y="350" width="50" height="30" as="geometry" />
        </mxCell>
        <mxCell id="i6mA0avMITJ-HFU1GMFp-71" value="" style="endArrow=classic;html=1;rounded=0;entryX=0.592;entryY=-0.277;entryDx=0;entryDy=0;entryPerimeter=0;" edge="1" parent="1">
          <mxGeometry width="50" height="50" relative="1" as="geometry">
            <mxPoint x="841.25" y="364.99999999999994" as="sourcePoint" />
            <mxPoint x="1013.3499999999999" y="365.4849999999998" as="targetPoint" />
          </mxGeometry>
        </mxCell>
        <mxCell id="i6mA0avMITJ-HFU1GMFp-74" value="&lt;span style=&quot;color: rgb(5, 7, 59); font-family: -apple-system, BlinkMacSystemFont, &amp;quot;Segoe UI&amp;quot;, Roboto, Ubuntu, &amp;quot;Helvetica Neue&amp;quot;, Helvetica, Arial, &amp;quot;PingFang SC&amp;quot;, &amp;quot;Hiragino Sans GB&amp;quot;, &amp;quot;Microsoft YaHei UI&amp;quot;, &amp;quot;Microsoft YaHei&amp;quot;, &amp;quot;Source Han Sans CN&amp;quot;, sans-serif, &amp;quot;Apple Color Emoji&amp;quot;, &amp;quot;Segoe UI Emoji&amp;quot;; text-align: start; background-color: rgb(253, 253, 254);&quot;&gt;&lt;font style=&quot;font-size: 12px;&quot;&gt;Order Status Check(orderId)&lt;/font&gt;&lt;/span&gt;" style="text;html=1;align=center;verticalAlign=middle;whiteSpace=wrap;rounded=0;" vertex="1" parent="1">
          <mxGeometry x="850" y="350" width="150" height="10" as="geometry" />
        </mxCell>
        <mxCell id="i6mA0avMITJ-HFU1GMFp-76" value="" style="endArrow=none;dashed=1;html=1;dashPattern=1 3;strokeWidth=2;rounded=0;exitX=0.198;exitY=1.346;exitDx=0;exitDy=0;exitPerimeter=0;" edge="1" parent="1">
          <mxGeometry width="50" height="50" relative="1" as="geometry">
            <mxPoint x="843.94" y="399.855" as="sourcePoint" />
            <mxPoint x="1020" y="400" as="targetPoint" />
          </mxGeometry>
        </mxCell>
        <mxCell id="i6mA0avMITJ-HFU1GMFp-77" value="" style="endArrow=classic;html=1;rounded=0;" edge="1" parent="1">
          <mxGeometry width="50" height="50" relative="1" as="geometry">
            <mxPoint x="860" y="400" as="sourcePoint" />
            <mxPoint x="840" y="400" as="targetPoint" />
            <Array as="points" />
          </mxGeometry>
        </mxCell>
        <mxCell id="i6mA0avMITJ-HFU1GMFp-80" value="If application handled" style="text;html=1;align=center;verticalAlign=middle;whiteSpace=wrap;rounded=0;" vertex="1" parent="1">
          <mxGeometry x="860" y="403.75" width="130" height="16.25" as="geometry" />
        </mxCell>
        <mxCell id="i6mA0avMITJ-HFU1GMFp-86" value="" style="endArrow=classic;html=1;rounded=0;" edge="1" parent="1">
          <mxGeometry width="50" height="50" relative="1" as="geometry">
            <mxPoint x="406.88" y="515.8" as="sourcePoint" />
            <mxPoint x="610" y="516" as="targetPoint" />
          </mxGeometry>
        </mxCell>
        <mxCell id="i6mA0avMITJ-HFU1GMFp-88" value="withdrawApplication&lt;div&gt;(srudentId,orderId)&lt;/div&gt;" style="text;html=1;align=center;verticalAlign=middle;whiteSpace=wrap;rounded=0;" vertex="1" parent="1">
          <mxGeometry x="430" y="523.44" width="120" height="22.18" as="geometry" />
        </mxCell>
      </root>
    </mxGraphModel>
  </diagram>
</mxfile>
